<svg xmlns="http://www.w3.org/2000/svg" xmlns:xlink="http://www.w3.org/1999/xlink" viewBox="0 0 381.86 459.75"><defs><style>.cls-1{fill:none;}.cls-2,.cls-4{fill:#223241;}.cls-2,.cls-3{opacity:0.25;}.cls-5{clip-path:url(#clip-path);}.cls-6{clip-path:url(#clip-path-2);}.cls-7{clip-path:url(#clip-path-3);}.cls-8{clip-path:url(#clip-path-4);}</style><clipPath id="clip-path" transform="translate(0 0.76)"><circle class="cls-1" cx="330.99" cy="173.25" r="28.25"/></clipPath><clipPath id="clip-path-2" transform="translate(0 0.76)"><circle class="cls-1" cx="330.99" cy="297.25" r="28.25"/></clipPath><clipPath id="clip-path-3" transform="translate(0 0.76)"><circle class="cls-1" cx="330.99" cy="430.25" r="28.25"/></clipPath><clipPath id="clip-path-4" transform="translate(0 0.76)"><circle class="cls-1" cx="330.99" cy="28.25" r="28.25"/></clipPath></defs><g id="Capa_2" data-name="Capa 2"><g id="Capa_1-2" data-name="Capa 1"><path class="cls-2" d="M55.15,173.22c0,2.11,0,4.22,0,6.32,0,3.85,0,7.7,0,11.55A9.58,9.58,0,0,1,52,197.86a10.26,10.26,0,0,1-4.52,2.67,13.88,13.88,0,0,1-3.69.35H20c-3,0-6.1,0-9.15,0A10.39,10.39,0,0,1,2,196.51a9.83,9.83,0,0,1-2-6.13q0-17.22,0-34.44a10.64,10.64,0,0,1,7.05-9.79,10.07,10.07,0,0,1,3.36-.54H39.83c1.59,0,3.17,0,4.75,0a10.13,10.13,0,0,1,8.27,3.94A9.71,9.71,0,0,1,55.14,156v17.25Zm-8.63,18.52v-.35c0-4.79,0-9.59,0-14.38a14.79,14.79,0,0,0-.61-4.27,8.8,8.8,0,0,0-3.43-4.89,9.48,9.48,0,0,0-5.76-1.54,8,8,0,0,0-5.64,2.31c-.49.49-.91,1-1.4,1.62V167H21.52v24.88h8.16c0-.1,0-.18,0-.27,0-4.58,0-9.15,0-13.73a7.67,7.67,0,0,1,.18-1.72,4.69,4.69,0,0,1,4.81-3.42,3.57,3.57,0,0,1,3.36,2.72,6.6,6.6,0,0,1,.31,1.58c.06,1.52.07,3,.07,4.55q0,4.47,0,8.93v1.24Zm-29.84,0v-24.9H8.52v24.9Zm-3.5-28.29.3,0A4.23,4.23,0,0,0,16.32,162a4.35,4.35,0,0,0-.83-6.39,5.08,5.08,0,0,0-3.5-.74,4.1,4.1,0,0,0-3.84,4.85A4.57,4.57,0,0,0,13.18,163.45Z" transform="translate(0 0.76)"/><g class="cls-3"><path class="cls-4" d="M207.43,173.47c0,5,0,10,0,15,0,7.7-5.29,13-13,13q-14.88,0-29.77,0c-8.43,0-13.53-5.11-13.54-13.53q0-14.78,0-29.55c0-8.17,5.14-13.29,13.32-13.31q15.11,0,30.21,0a12.34,12.34,0,0,1,12.76,12.54c.05,2.67,0,5.36,0,8Zm-28-19.39c-2.68,0-5.36,0-8,0-6.54.06-11.11,4.44-11.27,11q-.19,8.25,0,16.51c.17,6.42,4.75,10.78,11.18,10.84q8,.08,16.07,0a10.8,10.8,0,0,0,11.07-10.75c.15-5.57.16-11.16,0-16.73-.18-6.38-4.79-10.73-11.2-10.84C184.64,154.05,182,154.08,179.43,154.08Z" transform="translate(0 0.76)"/><path class="cls-4" d="M195.15,173.29c0,2.67,0,5.35,0,8-.06,4.51-3.07,7.7-7.59,7.79-5.56.11-11.14.12-16.71,0a7.42,7.42,0,0,1-7.43-7.53q-.14-8.36,0-16.71a7.34,7.34,0,0,1,7.26-7.44q8.58-.23,17.15,0a7.41,7.41,0,0,1,7.31,7.62C195.19,167.79,195.15,170.54,195.15,173.29Zm-6.07-.08a9.81,9.81,0,1,0-9.76,9.87A9.82,9.82,0,0,0,189.08,173.21Zm1-13-1,0c-.63.87-1.62,1.68-1.8,2.63-.25,1.37.72,2.29,2.18,2.32s2.49-.86,2.32-2.22C191.66,162,190.69,161.12,190.09,160.22Z" transform="translate(0 0.76)"/><path class="cls-4" d="M179.11,179.77a6.52,6.52,0,0,1,.23-13,6.52,6.52,0,1,1-.23,13Z" transform="translate(0 0.76)"/></g><g class="cls-3"><g class="cls-5"><path class="cls-4" d="M280,202V144.24H381.86V202Zm47.35-30.26.36-.11a4.12,4.12,0,0,0,3.1-3.26,7.3,7.3,0,0,0-.22-3.93,5.79,5.79,0,0,0-3.41-3.63,9,9,0,0,0-3.62-.63H311c-.44,0-.44,0-.44.45v24.67c0,.2.06.26.26.26H323.9a7,7,0,0,0,1.12-.08,9.19,9.19,0,0,0,4-1.5,6.3,6.3,0,0,0,2.46-3.64,10.41,10.41,0,0,0,.26-2.84,7.69,7.69,0,0,0-.89-3.55,3.83,3.83,0,0,0-2.38-1.95C328.13,171.86,327.74,171.81,327.3,171.72Zm17.49,5.9h6.31c.23,0,.3-.08.31-.29a15,15,0,0,0-.41-4.52,8.6,8.6,0,0,0-2.32-4.09,7.46,7.46,0,0,0-3.19-1.74,11.44,11.44,0,0,0-3.64-.34,9.57,9.57,0,0,0-4.43,1.2,8.37,8.37,0,0,0-2.37,2,10,10,0,0,0-1.6,3,11.52,11.52,0,0,0-.58,5,9.6,9.6,0,0,0,1.81,4.8,7.93,7.93,0,0,0,3.89,2.75,12.68,12.68,0,0,0,4.82.58,10.66,10.66,0,0,0,4.6-1.13,6,6,0,0,0,2.42-2.28,6.47,6.47,0,0,0,.79-3.08c0-.16,0-.23-.2-.23H347a.31.31,0,0,0-.21.19,2.54,2.54,0,0,1-1.7,2.11,6.18,6.18,0,0,1-3.61.28,3.76,3.76,0,0,1-2.45-1.54,4.6,4.6,0,0,1-.74-2.45c0-.22,0-.3.27-.29Zm-2.48-12.84h4.92c.23,0,.33-.05.33-.31,0-.85,0-1.7,0-2.55,0-.2-.06-.27-.27-.27h-9.93c-.21,0-.27.07-.27.28,0,.85,0,1.71,0,2.57,0,.22.08.28.3.28Z" transform="translate(0 0.76)"/><path class="cls-4" d="M320.17,181c-1.16,0-2.32,0-3.47,0-.26,0-.35-.06-.35-.33,0-2.05,0-4.09,0-6.14,0-.26.08-.33.34-.33h6.81a2.76,2.76,0,0,1,2.82,2.45,5.13,5.13,0,0,1-.09,2.37,2.59,2.59,0,0,1-2.49,1.94l-.37,0c-1.07,0-2.13,0-3.2,0Z" transform="translate(0 0.76)"/><path class="cls-4" d="M320.2,164.67c1.09,0,2.17,0,3.25,0a1.9,1.9,0,0,1,1.89,1.39,5.08,5.08,0,0,1-.12,3.18,1.48,1.48,0,0,1-1.34,1c-1,.06-2,.06-3,.07-1.42,0-2.84,0-4.26,0-.22,0-.31-.05-.3-.28,0-1.7,0-3.41,0-5.12,0-.22.1-.26.3-.26Z" transform="translate(0 0.76)"/><path class="cls-4" d="M342.37,174.23H338.5c-.31,0-.32,0-.24-.32a4.49,4.49,0,0,1,2-2.9,4.31,4.31,0,0,1,4.63-.08,3.46,3.46,0,0,1,1.53,2.35c.05.22.07.44.11.67s-.06.29-.28.28Z" transform="translate(0 0.76)"/></g></g><g class="cls-6"><path class="cls-4" d="M280,326V268.24H381.86V326Zm47.35-30.26.36-.11a4.12,4.12,0,0,0,3.1-3.26,7.3,7.3,0,0,0-.22-3.93,5.79,5.79,0,0,0-3.41-3.63,9,9,0,0,0-3.62-.63H311c-.44,0-.44,0-.44.45v24.67c0,.2.06.26.26.26H323.9a7,7,0,0,0,1.12-.08,9.19,9.19,0,0,0,4-1.5,6.3,6.3,0,0,0,2.46-3.64,10.41,10.41,0,0,0,.26-2.84,7.69,7.69,0,0,0-.89-3.55,3.83,3.83,0,0,0-2.38-2C328.13,295.86,327.74,295.81,327.3,295.72Zm17.49,5.9h6.31c.23,0,.3-.08.31-.29a15,15,0,0,0-.41-4.52,8.6,8.6,0,0,0-2.32-4.09,7.46,7.46,0,0,0-3.19-1.74,11.44,11.44,0,0,0-3.64-.34,9.57,9.57,0,0,0-4.43,1.2,8.37,8.37,0,0,0-2.37,2,10,10,0,0,0-1.6,3,11.52,11.52,0,0,0-.58,5,9.6,9.6,0,0,0,1.81,4.8,7.93,7.93,0,0,0,3.89,2.75,12.68,12.68,0,0,0,4.82.58,10.66,10.66,0,0,0,4.6-1.13,6,6,0,0,0,2.42-2.28,6.47,6.47,0,0,0,.79-3.08c0-.16,0-.23-.2-.23H347a.31.31,0,0,0-.21.19,2.54,2.54,0,0,1-1.7,2.11,6.18,6.18,0,0,1-3.61.28,3.76,3.76,0,0,1-2.45-1.54,4.6,4.6,0,0,1-.74-2.45c0-.22,0-.3.27-.29Zm-2.48-12.84h4.92c.23,0,.33,0,.33-.31,0-.85,0-1.7,0-2.55,0-.2-.06-.27-.27-.27h-9.93c-.21,0-.27.07-.27.28,0,.85,0,1.71,0,2.57,0,.22.08.28.3.28Z" transform="translate(0 0.76)"/><path class="cls-4" d="M320.17,305H316.7c-.26,0-.35-.06-.35-.33,0-2.05,0-4.09,0-6.14,0-.26.08-.33.34-.33h6.81a2.76,2.76,0,0,1,2.82,2.45,5.13,5.13,0,0,1-.09,2.37,2.59,2.59,0,0,1-2.49,1.94l-.37,0h-3.2Z" transform="translate(0 0.76)"/><path class="cls-4" d="M320.2,288.67c1.09,0,2.17,0,3.25,0a1.9,1.9,0,0,1,1.89,1.39,5.08,5.08,0,0,1-.12,3.18,1.48,1.48,0,0,1-1.34,1c-1,.06-2,.06-3,.07h-4.26c-.22,0-.31-.05-.3-.28,0-1.7,0-3.41,0-5.12,0-.22.1-.26.3-.26Z" transform="translate(0 0.76)"/><path class="cls-4" d="M342.37,298.23H338.5c-.31,0-.32,0-.24-.32a4.49,4.49,0,0,1,2-2.9,4.31,4.31,0,0,1,4.63-.08,3.46,3.46,0,0,1,1.53,2.35c.05.22.07.44.11.67s-.06.29-.28.28Z" transform="translate(0 0.76)"/></g><path class="cls-4" d="M55.15,297.22c0,2.11,0,4.22,0,6.32,0,3.85,0,7.7,0,11.55A9.58,9.58,0,0,1,52,321.86a10.26,10.26,0,0,1-4.52,2.67,13.88,13.88,0,0,1-3.69.35H20c-3,0-6.1,0-9.15,0A10.39,10.39,0,0,1,2,320.51a9.83,9.83,0,0,1-2-6.13q0-17.22,0-34.44a10.64,10.64,0,0,1,7.05-9.79,10.07,10.07,0,0,1,3.36-.54H39.83c1.59,0,3.17,0,4.75,0a10.13,10.13,0,0,1,8.27,3.94A9.71,9.71,0,0,1,55.14,280v17.25Zm-8.63,18.52v-.35c0-4.79,0-9.59,0-14.38a14.79,14.79,0,0,0-.61-4.27,8.8,8.8,0,0,0-3.43-4.89,9.48,9.48,0,0,0-5.76-1.54,8,8,0,0,0-5.64,2.31c-.49.49-.91,1.05-1.4,1.62V291H21.52v24.88h8.16c0-.1,0-.18,0-.27,0-4.58,0-9.15,0-13.73a7.67,7.67,0,0,1,.18-1.72,4.69,4.69,0,0,1,4.81-3.42,3.57,3.57,0,0,1,3.36,2.72,6.6,6.6,0,0,1,.31,1.58c.06,1.52.07,3,.07,4.55q0,4.47,0,8.93v1.24Zm-29.84,0v-24.9H8.52v24.9Zm-3.5-28.29.3,0A4.23,4.23,0,0,0,16.32,286a4.35,4.35,0,0,0-.83-6.39,5.08,5.08,0,0,0-3.5-.74,4.1,4.1,0,0,0-3.84,4.85A4.57,4.57,0,0,0,13.18,287.45Z" transform="translate(0 0.76)"/><path class="cls-4" d="M207.43,297.47c0,5,0,10,0,15,0,7.7-5.29,13-13,13q-14.88,0-29.77,0c-8.43,0-13.53-5.11-13.54-13.53q0-14.78,0-29.55c0-8.17,5.14-13.29,13.32-13.31q15.11,0,30.21,0a12.34,12.34,0,0,1,12.76,12.54c.05,2.67,0,5.36,0,8Zm-28-19.39c-2.68,0-5.36,0-8,0-6.54.06-11.11,4.44-11.27,11q-.19,8.25,0,16.51c.17,6.42,4.75,10.78,11.18,10.84q8,.07,16.07,0a10.8,10.8,0,0,0,11.07-10.75c.15-5.57.16-11.16,0-16.73-.18-6.38-4.79-10.73-11.2-10.84C184.64,278.05,182,278.08,179.43,278.08Z" transform="translate(0 0.76)"/><path class="cls-4" d="M195.15,297.29c0,2.67,0,5.35,0,8-.06,4.51-3.07,7.7-7.59,7.79-5.56.11-11.14.12-16.71,0a7.42,7.42,0,0,1-7.43-7.53q-.14-8.35,0-16.71a7.34,7.34,0,0,1,7.26-7.44q8.58-.23,17.15,0a7.41,7.41,0,0,1,7.31,7.62C195.19,291.79,195.15,294.54,195.15,297.29Zm-6.07-.08a9.81,9.81,0,1,0-9.76,9.87A9.82,9.82,0,0,0,189.08,297.21Zm1-13-1,0c-.63.87-1.62,1.68-1.8,2.63-.25,1.37.72,2.29,2.18,2.32s2.49-.86,2.32-2.22C191.66,286,190.69,285.12,190.09,284.22Z" transform="translate(0 0.76)"/><path class="cls-4" d="M179.11,303.77a6.52,6.52,0,0,1,.23-13,6.52,6.52,0,1,1-.23,13Z" transform="translate(0 0.76)"/><g class="cls-7"><path class="cls-4" d="M280,459V401.24H381.86V459Zm47.35-30.26.36-.11a4.12,4.12,0,0,0,3.1-3.26,7.3,7.3,0,0,0-.22-3.93,5.79,5.79,0,0,0-3.41-3.63,9,9,0,0,0-3.62-.63H311c-.44,0-.44,0-.44.45v24.67c0,.2.06.26.26.26H323.9a7,7,0,0,0,1.12-.08,9.19,9.19,0,0,0,4-1.5,6.3,6.3,0,0,0,2.46-3.64,10.41,10.41,0,0,0,.26-2.84,7.69,7.69,0,0,0-.89-3.55,3.83,3.83,0,0,0-2.38-2C328.13,428.86,327.74,428.81,327.3,428.72Zm17.49,5.9h6.31c.23,0,.3-.08.31-.29a15,15,0,0,0-.41-4.52,8.6,8.6,0,0,0-2.32-4.09,7.46,7.46,0,0,0-3.19-1.74,11.44,11.44,0,0,0-3.64-.34,9.57,9.57,0,0,0-4.43,1.2,8.37,8.37,0,0,0-2.37,2,10,10,0,0,0-1.6,3,11.52,11.52,0,0,0-.58,5,9.6,9.6,0,0,0,1.81,4.8,7.93,7.93,0,0,0,3.89,2.75,12.68,12.68,0,0,0,4.82.58,10.66,10.66,0,0,0,4.6-1.13,6,6,0,0,0,2.42-2.28,6.47,6.47,0,0,0,.79-3.08c0-.16,0-.23-.2-.23H347a.31.31,0,0,0-.21.19,2.54,2.54,0,0,1-1.7,2.11,6.18,6.18,0,0,1-3.61.28,3.76,3.76,0,0,1-2.45-1.54,4.6,4.6,0,0,1-.74-2.45c0-.22,0-.3.27-.29Zm-2.48-12.84h4.92c.23,0,.33,0,.33-.31,0-.85,0-1.7,0-2.55,0-.2-.06-.27-.27-.27h-9.93c-.21,0-.27.07-.27.28,0,.85,0,1.71,0,2.57,0,.22.08.28.3.28Z" transform="translate(0 0.76)"/><path class="cls-4" d="M320.17,438H316.7c-.26,0-.35-.06-.35-.33,0-2.05,0-4.09,0-6.14,0-.26.08-.33.34-.33h6.81a2.76,2.76,0,0,1,2.82,2.45,5.13,5.13,0,0,1-.09,2.37,2.59,2.59,0,0,1-2.49,1.94l-.37,0h-3.2Z" transform="translate(0 0.76)"/><path class="cls-4" d="M320.2,421.67c1.09,0,2.17,0,3.25,0a1.9,1.9,0,0,1,1.89,1.39,5.08,5.08,0,0,1-.12,3.18,1.48,1.48,0,0,1-1.34,1c-1,.06-2,.06-3,.07h-4.26c-.22,0-.31-.05-.3-.28,0-1.7,0-3.41,0-5.12,0-.22.1-.26.3-.26Z" transform="translate(0 0.76)"/><path class="cls-4" d="M342.37,431.23H338.5c-.31,0-.32,0-.24-.32a4.49,4.49,0,0,1,2-2.9,4.31,4.31,0,0,1,4.63-.08,3.46,3.46,0,0,1,1.53,2.35c.05.22.07.44.11.67s-.06.29-.28.28Z" transform="translate(0 0.76)"/></g><path class="cls-4" d="M55.15,430.22c0,2.11,0,4.22,0,6.32,0,3.85,0,7.7,0,11.55A9.58,9.58,0,0,1,52,454.86a10.26,10.26,0,0,1-4.52,2.67,13.88,13.88,0,0,1-3.69.35H20c-3,0-6.1,0-9.15,0A10.39,10.39,0,0,1,2,453.51a9.83,9.83,0,0,1-2-6.13q0-17.22,0-34.44a10.64,10.64,0,0,1,7.05-9.79,10.07,10.07,0,0,1,3.36-.54H39.83c1.59,0,3.17,0,4.75,0a10.13,10.13,0,0,1,8.27,3.94A9.71,9.71,0,0,1,55.14,413v17.25Zm-8.63,18.52v-.35c0-4.79,0-9.59,0-14.38a14.79,14.79,0,0,0-.61-4.27,8.8,8.8,0,0,0-3.43-4.89,9.48,9.48,0,0,0-5.76-1.54,8,8,0,0,0-5.64,2.31c-.49.49-.91,1.05-1.4,1.62V424H21.52v24.88h8.16c0-.1,0-.18,0-.27,0-4.58,0-9.15,0-13.73a7.67,7.67,0,0,1,.18-1.72,4.69,4.69,0,0,1,4.81-3.42,3.57,3.57,0,0,1,3.36,2.72,6.6,6.6,0,0,1,.31,1.58c.06,1.52.07,3,.07,4.55q0,4.47,0,8.93v1.24Zm-29.84,0v-24.9H8.52v24.9Zm-3.5-28.29.3,0A4.23,4.23,0,0,0,16.32,419a4.35,4.35,0,0,0-.83-6.39,5.08,5.08,0,0,0-3.5-.74,4.1,4.1,0,0,0-3.84,4.85A4.57,4.57,0,0,0,13.18,420.45Z" transform="translate(0 0.76)"/><path class="cls-4" d="M207.43,430.47c0,5,0,10,0,15,0,7.7-5.29,13-13,13q-14.88,0-29.77,0c-8.43,0-13.53-5.11-13.54-13.53q0-14.78,0-29.55c0-8.17,5.14-13.29,13.32-13.31q15.11,0,30.21,0a12.34,12.34,0,0,1,12.76,12.54c.05,2.67,0,5.36,0,8Zm-28-19.39c-2.68,0-5.36,0-8,0-6.54.06-11.11,4.44-11.27,11q-.19,8.25,0,16.51c.17,6.42,4.75,10.78,11.18,10.84q8,.07,16.07,0a10.8,10.8,0,0,0,11.07-10.75c.15-5.57.16-11.16,0-16.73-.18-6.38-4.79-10.73-11.2-10.84C184.64,411.05,182,411.08,179.43,411.08Z" transform="translate(0 0.76)"/><path class="cls-4" d="M195.15,430.29c0,2.67,0,5.35,0,8-.06,4.51-3.07,7.7-7.59,7.79-5.56.11-11.14.12-16.71,0a7.42,7.42,0,0,1-7.43-7.53q-.14-8.35,0-16.71a7.34,7.34,0,0,1,7.26-7.44q8.58-.23,17.15,0a7.41,7.41,0,0,1,7.31,7.62C195.19,424.79,195.15,427.54,195.15,430.29Zm-6.07-.08a9.81,9.81,0,1,0-9.76,9.87A9.82,9.82,0,0,0,189.08,430.21Zm1-13-1,0c-.63.87-1.62,1.68-1.8,2.63-.25,1.37.72,2.29,2.18,2.32s2.49-.86,2.32-2.22C191.66,419,190.69,418.12,190.09,417.22Z" transform="translate(0 0.76)"/><path class="cls-4" d="M179.11,436.77a6.52,6.52,0,0,1,.23-13,6.52,6.52,0,1,1-.23,13Z" transform="translate(0 0.76)"/><g class="cls-8"><path class="cls-4" d="M280,57V-.76H381.86V57ZM327.3,26.72l.36-.11a4.12,4.12,0,0,0,3.1-3.26,7.3,7.3,0,0,0-.22-3.93,5.79,5.79,0,0,0-3.41-3.63,9,9,0,0,0-3.62-.63H311c-.44,0-.44,0-.44.45V40.27c0,.2.06.26.26.26H323.9a7,7,0,0,0,1.12-.08,9.19,9.19,0,0,0,4-1.5,6.3,6.3,0,0,0,2.46-3.64,10.41,10.41,0,0,0,.26-2.84,7.69,7.69,0,0,0-.89-3.55A3.83,3.83,0,0,0,328.51,27C328.13,26.86,327.74,26.81,327.3,26.72Zm17.49,5.9h6.31c.23,0,.3-.08.31-.29a15,15,0,0,0-.41-4.52,8.6,8.6,0,0,0-2.32-4.09A7.46,7.46,0,0,0,345.49,22a11.44,11.44,0,0,0-3.64-.34,9.57,9.57,0,0,0-4.43,1.2,8.37,8.37,0,0,0-2.37,2,10,10,0,0,0-1.6,3,11.52,11.52,0,0,0-.58,5,9.6,9.6,0,0,0,1.81,4.8,7.93,7.93,0,0,0,3.89,2.75,12.68,12.68,0,0,0,4.82.58A10.66,10.66,0,0,0,348,39.9a6,6,0,0,0,2.42-2.28,6.47,6.47,0,0,0,.79-3.08c0-.16,0-.23-.2-.23H347a.31.31,0,0,0-.21.19,2.54,2.54,0,0,1-1.7,2.11,6.18,6.18,0,0,1-3.61.28A3.76,3.76,0,0,1,339,35.36a4.6,4.6,0,0,1-.74-2.45c0-.22,0-.3.27-.29Zm-2.48-12.84c1.64,0,3.28,0,4.92,0,.23,0,.33-.05.33-.31,0-.85,0-1.7,0-2.55,0-.2-.06-.27-.27-.27h-9.93c-.21,0-.27.07-.27.28,0,.85,0,1.71,0,2.57,0,.22.08.28.3.28C339,19.77,340.67,19.78,342.31,19.78Z" transform="translate(0 0.76)"/><path class="cls-4" d="M320.17,36c-1.16,0-2.32,0-3.47,0-.26,0-.35-.06-.35-.33,0-2,0-4.09,0-6.14,0-.26.08-.33.34-.33h6.81a2.76,2.76,0,0,1,2.82,2.45,5.13,5.13,0,0,1-.09,2.37A2.59,2.59,0,0,1,323.74,36l-.37,0c-1.07,0-2.13,0-3.2,0Z" transform="translate(0 0.76)"/><path class="cls-4" d="M320.2,19.67c1.09,0,2.17,0,3.25,0a1.9,1.9,0,0,1,1.89,1.39,5.08,5.08,0,0,1-.12,3.18,1.48,1.48,0,0,1-1.34,1c-1,.06-2,.06-3,.07h-4.26c-.22,0-.31,0-.3-.28,0-1.7,0-3.41,0-5.12,0-.22.1-.26.3-.26Z" transform="translate(0 0.76)"/><path class="cls-4" d="M342.37,29.23H338.5c-.31,0-.32,0-.24-.32a4.49,4.49,0,0,1,2-2.9,4.31,4.31,0,0,1,4.63-.08,3.46,3.46,0,0,1,1.53,2.35c.05.22.07.44.11.67s-.06.29-.28.28c-1.28,0-2.56,0-3.84,0Z" transform="translate(0 0.76)"/></g><path class="cls-4" d="M55.15,28.22c0,2.11,0,4.22,0,6.32,0,3.85,0,7.7,0,11.55A9.58,9.58,0,0,1,52,52.86a10.26,10.26,0,0,1-4.52,2.67,13.88,13.88,0,0,1-3.69.35q-11.91,0-23.82,0c-3,0-6.1,0-9.15,0A10.39,10.39,0,0,1,2,51.51a9.83,9.83,0,0,1-2-6.13Q0,28.16,0,10.94A10.64,10.64,0,0,1,7.05,1.15,10.07,10.07,0,0,1,10.41.61c4.91,0,9.81,0,14.71,0H39.83c1.59,0,3.17,0,4.75,0a10.13,10.13,0,0,1,8.27,3.94A9.71,9.71,0,0,1,55.14,11V28.22ZM46.52,46.74v-.35c0-4.79,0-9.59,0-14.38a14.79,14.79,0,0,0-.61-4.27,8.8,8.8,0,0,0-3.43-4.89,9.48,9.48,0,0,0-5.76-1.54,8,8,0,0,0-5.64,2.31c-.49.49-.91,1.05-1.4,1.62V22H21.52V46.86h8.16c0-.1,0-.18,0-.27,0-4.58,0-9.15,0-13.73a7.67,7.67,0,0,1,.18-1.72,4.69,4.69,0,0,1,4.81-3.42,3.57,3.57,0,0,1,3.36,2.72A6.6,6.6,0,0,1,38.36,32c.06,1.52.07,3,.07,4.55q0,4.47,0,8.93v1.24Zm-29.84,0V21.84H8.52v24.9Zm-3.5-28.29.3,0A4.23,4.23,0,0,0,16.32,17a4.35,4.35,0,0,0-.83-6.39A5.08,5.08,0,0,0,12,9.91a4.1,4.1,0,0,0-3.84,4.85A4.57,4.57,0,0,0,13.18,18.45Z" transform="translate(0 0.76)"/><path class="cls-4" d="M207.43,28.47c0,5,0,10,0,15,0,7.7-5.29,13-13,13q-14.88,0-29.77,0c-8.43,0-13.53-5.11-13.54-13.53q0-14.78,0-29.55c0-8.17,5.14-13.29,13.32-13.31q15.11,0,30.21,0a12.34,12.34,0,0,1,12.76,12.54c.05,2.67,0,5.36,0,8Zm-28-19.39c-2.68,0-5.36,0-8,0-6.54.06-11.11,4.44-11.27,11q-.19,8.25,0,16.51c.17,6.42,4.75,10.78,11.18,10.84q8,.07,16.07,0a10.8,10.8,0,0,0,11.07-10.75c.15-5.57.16-11.16,0-16.73-.18-6.38-4.79-10.73-11.2-10.84C184.64,9.05,182,9.08,179.43,9.08Z" transform="translate(0 0.76)"/><path class="cls-4" d="M195.15,28.29c0,2.67,0,5.35,0,8-.06,4.51-3.07,7.7-7.59,7.79-5.56.11-11.14.12-16.71,0a7.42,7.42,0,0,1-7.43-7.53q-.14-8.35,0-16.71a7.34,7.34,0,0,1,7.26-7.44q8.58-.23,17.15,0A7.41,7.41,0,0,1,195.14,20C195.19,22.79,195.15,25.54,195.15,28.29Zm-6.07-.08a9.81,9.81,0,1,0-9.76,9.87A9.82,9.82,0,0,0,189.08,28.21Zm1-13-1,0c-.63.87-1.62,1.68-1.8,2.63-.25,1.37.72,2.29,2.18,2.32s2.49-.86,2.32-2.22C191.66,17,190.69,16.12,190.09,15.22Z" transform="translate(0 0.76)"/><path class="cls-4" d="M179.11,34.77a6.52,6.52,0,0,1,.23-13,6.52,6.52,0,1,1-.23,13Z" transform="translate(0 0.76)"/></g></g></svg>